HIERARCHY
ROOT root
{
	OFFSET 0.000000 0.000000 0.000000
	CHANNELS 6 Xposition Yposition Zposition Zrotation Yrotation Xrotation
	JOINT lhip
	{
		OFFSET 0.058581 -0.082280 -0.017664
		CHANNELS 3 Zrotation Yrotation Xrotation
		JOINT lknee
		{
			OFFSET 0.043451 -0.386469 0.008037
			CHANNELS 3 Zrotation Yrotation Xrotation
			JOINT lankle
			{
				OFFSET -0.014790 -0.426874 -0.037428
				CHANNELS 3 Zrotation Yrotation Xrotation
				JOINT ltoe
				{
					OFFSET 0.041054 -0.060286 0.122042
					CHANNELS 3 Zrotation Yrotation Xrotation
					End Site
					{
						OFFSET 0.000000 0.000000 0.000000
					}
				}
			}
		}
	}
	JOINT rhip
	{
		OFFSET -0.060310 -0.090513 -0.013543
		CHANNELS 3 Zrotation Yrotation Xrotation
		JOINT rknee
		{
			OFFSET -0.043257 -0.383688 -0.004843
			CHANNELS 3 Zrotation Yrotation Xrotation
			JOINT rankle
			{
				OFFSET 0.019056 -0.420046 -0.034562
				CHANNELS 3 Zrotation Yrotation Xrotation
				JOINT rtoe
				{
					OFFSET -0.034840 -0.062106 0.130323
					CHANNELS 3 Zrotation Yrotation Xrotation
					End Site
					{
						OFFSET 0.000000 0.000000 0.000000
					}
				}
			}
		}
	}
	JOINT lowerback
	{
		OFFSET 0.004439 0.124404 -0.038385
		CHANNELS 3 Zrotation Yrotation Xrotation
		JOINT upperback
		{
			OFFSET 0.004488 0.137956 0.026820
			CHANNELS 3 Zrotation Yrotation Xrotation
			JOINT chest
			{
				OFFSET -0.002265 0.056032 0.002855
				CHANNELS 3 Zrotation Yrotation Xrotation
				JOINT lowerneck
				{
					OFFSET -0.013390 0.211636 -0.033468
					CHANNELS 3 Zrotation Yrotation Xrotation
					JOINT upperneck
					{
						OFFSET 0.010113 0.088937 0.050410
						CHANNELS 3 Zrotation Yrotation Xrotation
						End Site
						{
							OFFSET 0.000000 0.000000 0.000000
						}
					}
				}
				JOINT lclavicle
				{
					OFFSET 0.071702 0.114000 -0.018898
					CHANNELS 3 Zrotation Yrotation Xrotation
					JOINT lshoulder
					{
						OFFSET 0.122921 0.045205 -0.019046
						CHANNELS 3 Zrotation Yrotation Xrotation
						JOINT lelbow
						{
							OFFSET 0.255332 -0.015649 -0.022946
							CHANNELS 3 Zrotation Yrotation Xrotation
							JOINT lwrist
							{
								OFFSET 0.265709 0.012698 -0.007375
								CHANNELS 3 Zrotation Yrotation Xrotation
								End Site
								{
									OFFSET 0.000000 0.000000 0.000000
								}
							}
						}
					}
				}
				JOINT rclavicle
				{
					OFFSET -0.082954 0.112472 -0.023707
					CHANNELS 3 Zrotation Yrotation Xrotation
					JOINT rshoulder
					{
						OFFSET -0.113228 0.046853 -0.008472
						CHANNELS 3 Zrotation Yrotation Xrotation
						JOINT relbow
						{
							OFFSET -0.260127 -0.014369 -0.031269
							CHANNELS 3 Zrotation Yrotation Xrotation
							JOINT rwrist
							{
								OFFSET -0.269108 0.006794 -0.006027
								CHANNELS 3 Zrotation Yrotation Xrotation
								End Site
								{
									OFFSET 0.000000 0.000000 0.000000
								}
							}
						}
					}
				}
			}
		}
	}
}
MOTION
Frames: 11
Frame Time: 0.033333
2.336977 0.680360 0.995202 -79.674674 -0.643823 84.052949 -2.957053 -1.238055 4.228381 1.557797 -9.780121 2.117460 0.312303 8.346920 -10.333014 0.000000 -0.000000 0.000000 0.517803 -1.769410 2.123647 -4.997561 -4.091252 9.902349 1.659871 -10.182037 -16.655974 0.000000 -0.000000 0.000000 0.285239 2.862646 12.526119 -3.482849 -0.437422 0.048929 0.068611 1.095765 -0.413260 -0.518465 29.981595 -7.540259 -4.129506 26.303181 -5.952511 -24.995374 -8.866151 0.756546 -53.271712 -7.743515 12.358280 -3.387983 -22.474131 18.513809 -4.322356 -2.203374 -1.174495 20.427475 6.511852 4.896676 63.732407 3.511958 20.078805 -3.294016 29.447121 13.025919 4.015999 -0.214833 -6.087037 
2.336954 0.680761 0.995377 -79.918280 -0.511329 84.340605 -2.661857 -1.401398 3.798137 1.238738 -9.450024 2.535099 -0.460129 8.658806 -9.981963 0.000000 -0.000000 0.000000 0.625996 -1.431293 1.739911 -4.883034 -4.287919 10.012574 1.703122 -10.153566 -16.474898 0.000000 -0.000000 0.000000 0.194017 2.995938 12.221416 -3.309447 -0.488175 0.038116 0.172620 1.053147 -0.299929 -0.504127 30.026365 -7.062802 -4.362015 26.380390 -6.772039 -25.180416 -8.816862 0.907942 -53.097617 -7.810951 12.534984 -3.390716 -22.674021 18.181558 -3.930965 -2.006485 -0.989900 20.548277 6.449682 5.078217 63.544491 3.646579 20.279948 -3.436601 29.528080 13.179692 4.050668 -0.367307 -6.470784 
2.336258 0.680244 0.995704 -80.118412 -0.601513 84.282569 -2.745715 -1.337791 3.982191 1.185419 -9.325442 2.441120 -0.314432 8.757501 -9.991606 0.000000 -0.000000 0.000000 0.491956 -1.254321 1.876562 -4.873828 -4.195244 9.989911 1.728597 -10.250816 -16.411087 0.000000 -0.000000 0.000000 0.025615 3.043105 12.142931 -3.261806 -0.412345 0.279023 0.233942 1.079170 -0.282749 -0.489175 29.916747 -6.924761 -4.481354 26.253622 -6.952663 -25.241820 -8.870018 1.043823 -52.906031 -7.965344 12.489056 -3.681573 -22.643577 18.061136 -4.892937 -1.972673 -1.331322 20.633646 6.418427 5.128686 63.441143 3.545245 20.230731 -3.791412 29.817735 12.928765 4.695874 -0.382218 -6.454264 
2.335695 0.680113 0.995706 -80.277718 -0.555351 84.233000 -2.672940 -1.203701 4.074604 1.142362 -9.372699 2.474147 -0.684304 8.861137 -9.835551 0.000000 -0.000000 0.000000 0.562744 -1.117338 1.947335 -4.927483 -4.234460 10.018403 1.680401 -10.245908 -16.350968 0.000000 -0.000000 0.000000 0.074666 3.071500 12.245040 -3.304106 -0.373756 0.416104 0.241170 0.995409 -0.363916 -0.532993 30.102161 -6.865213 -4.445817 26.359520 -7.384957 -25.244285 -9.014330 1.133954 -52.822466 -7.882790 12.452718 -3.648727 -22.773041 18.056965 -4.895533 -1.869142 -1.364739 20.664965 6.433639 5.168028 63.463748 3.660495 20.141492 -3.806256 29.635287 12.908588 4.706032 -0.556918 -6.480085 
2.335199 0.680191 0.995682 -80.346274 -0.448525 84.251690 -2.540012 -1.240520 4.012606 1.150599 -9.174865 2.599967 -0.546318 8.846668 -9.955336 0.000000 -0.000000 0.000000 0.666672 -1.144971 1.983204 -4.853077 -4.174355 9.946594 1.789634 -10.039006 -16.403860 0.000000 -0.000000 0.000000 0.084959 3.077209 12.297894 -3.262829 -0.409344 0.488676 0.322283 0.974949 -0.437690 -0.632602 30.241856 -7.011509 -4.448680 26.526091 -7.417867 -25.363401 -9.194299 1.286046 -52.824606 -7.840652 12.353610 -3.434516 -22.786771 17.689738 -5.197277 -1.745877 -1.471545 20.774008 6.675636 5.306687 63.349904 3.561606 20.090115 -4.055035 29.731306 12.598188 4.774460 -0.497948 -6.661699 
2.334513 0.679843 0.995740 -80.347951 -0.470172 84.148222 -2.592056 -1.105967 4.138254 1.178796 -9.215087 2.697644 -0.691554 8.794530 -10.054453 0.000000 -0.000000 0.000000 0.614102 -1.153456 2.160007 -4.900173 -4.164225 9.976854 1.855526 -10.153591 -16.567541 0.000000 -0.000000 0.000000 0.129141 3.000730 12.407122 -3.307301 -0.442656 0.615855 0.275429 0.946714 -0.481245 -0.418201 30.101443 -6.958520 -4.548612 26.538265 -7.640035 -25.559011 -9.139372 1.224990 -52.566817 -7.851363 12.309195 -3.553269 -22.721191 17.909897 -4.576404 -1.821528 -0.796301 20.778856 6.608005 5.245959 63.315042 3.649530 20.049373 -3.874145 29.745405 12.450787 4.413823 -0.430104 -6.711845 
2.333459 0.679619 0.995705 -80.196312 -0.401621 84.128872 -2.515521 -1.159816 4.159414 1.119058 -9.255482 2.864199 -0.675038 8.683073 -10.279103 0.000000 -0.000000 0.000000 0.729027 -1.214642 2.404343 -4.987108 -4.213452 9.733286 1.861309 -10.246368 -16.498800 0.000000 -0.000000 0.000000 0.068488 2.997775 12.280750 -3.199220 -0.522729 0.902368 0.348518 0.927616 -0.577361 -0.340603 30.150239 -6.792706 -4.658767 26.609119 -7.890395 -25.572197 -9.121693 1.243792 -52.640008 -7.992270 12.337237 -3.512082 -22.738966 18.141392 -4.430626 -1.884541 -0.865319 20.746771 6.573337 5.246262 63.338324 3.647892 20.016407 -3.976517 29.815442 12.395038 4.253464 -0.393647 -6.871781 
2.333029 0.679275 0.995573 -80.419484 -0.427920 84.068750 -2.554660 -1.036484 4.128654 1.088479 -9.147423 3.136238 -0.660146 8.779400 -10.416289 0.000000 -0.000000 0.000000 0.654817 -1.187575 2.359729 -4.992495 -4.268957 9.988071 1.849765 -10.051049 -16.548977 0.000000 -0.000000 0.000000 0.097285 3.043864 12.585289 -3.236659 -0.416061 0.594317 0.344564 1.009541 -0.509136 -0.338137 30.346572 -6.933793 -4.534322 26.662331 -7.524096 -25.504372 -9.189539 1.104086 -52.720788 -7.885698 12.339911 -3.624777 -22.679311 18.144908 -4.831381 -1.822265 -1.047930 20.764661 6.699940 5.156104 63.369875 3.446356 20.043600 -4.096496 29.775814 12.363510 4.838971 -0.697720 -7.196722 
2.331576 0.678590 0.995685 -80.240232 -0.496109 84.257085 -2.614831 -1.069460 4.053731 1.031945 -9.219936 3.100668 -0.632943 8.553547 -10.463355 0.000000 -0.000000 0.000000 0.417175 -1.347900 2.401467 -4.795213 -4.370354 9.769203 1.999695 -10.014871 -16.642820 0.000000 -0.000000 0.000000 -0.015847 3.124617 12.141460 -3.187200 -0.467405 0.760770 0.392953 0.860444 -0.502203 -0.198527 30.259336 -6.730863 -4.746258 26.638606 -7.614098 -25.611833 -8.987008 1.108185 -52.584734 -7.888144 12.481056 -3.772421 -22.786701 18.423926 -4.170753 -1.964884 -0.598246 20.954723 6.493335 5.265613 63.126244 3.650274 20.074779 -3.872764 29.530440 12.275850 3.930508 -0.345104 -6.684691 
2.331236 0.678298 0.995491 -80.258328 -0.512713 84.311904 -2.678395 -1.159037 3.965506 1.054788 -9.090842 3.186014 -0.518765 8.774693 -10.516019 0.000000 -0.000000 0.000000 0.395432 -1.353439 2.318028 -4.801804 -4.314146 9.838502 2.092982 -9.975154 -16.643112 0.000000 -0.000000 0.000000 -0.024659 3.196213 12.225331 -3.188853 -0.388302 0.822992 0.391458 0.864164 -0.620545 -0.321738 30.291368 -6.917867 -4.590289 26.615607 -7.469339 -25.579060 -9.043595 1.101182 -52.658177 -7.969876 12.390057 -3.642921 -22.802829 18.157548 -4.455915 -1.821358 -0.652677 21.012943 6.523099 5.266500 63.050703 3.607465 19.995356 -3.956024 29.645765 12.229629 4.011721 -0.307886 -6.539098 
2.330161 0.677879 0.995670 -79.969806 -0.429072 84.404837 -2.590303 -1.316387 3.859262 0.970043 -9.283773 3.300758 -0.615886 8.544302 -10.501505 0.000000 -0.000000 0.000000 0.456891 -1.560394 2.403441 -4.816542 -4.437572 9.683205 2.160319 -10.021679 -16.616980 0.000000 -0.000000 0.000000 -0.021131 3.343997 11.995567 -3.101907 -0.487553 0.859618 0.466023 0.802188 -0.588035 -0.360197 30.117796 -6.805219 -4.570656 26.608077 -7.579501 -25.639732 -9.179364 1.319311 -52.630242 -7.978475 12.444903 -3.543476 -22.858467 17.961744 -4.468798 -1.914042 -0.830326 20.969635 6.568388 5.421297 63.054330 3.428768 19.861480 -4.067290 29.697647 12.193134 4.634423 -0.290003 -6.867210 
